<svg width="311" height="49" viewBox="0 0 311 49" fill="none" xmlns="http://www.w3.org/2000/svg">
<path d="M24.5526 49C38.1127 49 49.1053 38.031 49.1053 24.5C49.1053 10.969 38.1127 0 24.5526 0C10.9926 0 0 10.969 0 24.5C0 38.031 10.9926 49 24.5526 49Z" fill="#0029FF"/>
<path d="M13.9131 26.1333C15.2692 26.1333 16.3684 25.0364 16.3684 23.6833C16.3684 22.3302 15.2692 21.2333 13.9131 21.2333C12.5571 21.2333 11.4579 22.3302 11.4579 23.6833C11.4579 25.0364 12.5571 26.1333 13.9131 26.1333Z" fill="white"/>
<path opacity="0.1" d="M15.55 19.6C16.906 19.6 18.0053 18.5031 18.0053 17.15C18.0053 15.7969 16.906 14.7 15.55 14.7C14.194 14.7 13.0947 15.7969 13.0947 17.15C13.0947 18.5031 14.194 19.6 15.55 19.6Z" fill="white"/>
<path opacity="0.1" d="M15.55 32.6667C16.906 32.6667 18.0053 31.5698 18.0053 30.2167C18.0053 28.8636 16.906 27.7667 15.55 27.7667C14.194 27.7667 13.0947 28.8636 13.0947 30.2167C13.0947 31.5698 14.194 32.6667 15.55 32.6667Z" fill="white"/>
<path opacity="0.1" d="M35.1926 32.6666C36.5486 32.6666 37.6478 31.5697 37.6478 30.2166C37.6478 28.8635 36.5486 27.7666 35.1926 27.7666C33.8366 27.7666 32.7373 28.8635 32.7373 30.2166C32.7373 31.5697 33.8366 32.6666 35.1926 32.6666Z" fill="white"/>
<path opacity="0.1" d="M35.1926 19.6002C36.5486 19.6002 37.6478 18.5033 37.6478 17.1502C37.6478 15.7971 36.5486 14.7002 35.1926 14.7002C33.8366 14.7002 32.7373 15.7971 32.7373 17.1502C32.7373 18.5033 33.8366 19.6002 35.1926 19.6002Z" fill="white"/>
<path d="M20.4601 37.567C21.8162 37.567 22.9154 36.4701 22.9154 35.117C22.9154 33.7639 21.8162 32.667 20.4601 32.667C19.1041 32.667 18.0049 33.7639 18.0049 35.117C18.0049 36.4701 19.1041 37.567 20.4601 37.567Z" fill="white"/>
<path d="M30.2814 37.567C31.6374 37.567 32.7367 36.4701 32.7367 35.117C32.7367 33.7639 31.6374 32.667 30.2814 32.667C28.9254 32.667 27.8262 33.7639 27.8262 35.117C27.8262 36.4701 28.9254 37.567 30.2814 37.567Z" fill="white"/>
<path d="M36.8293 26.1334C38.1853 26.1334 39.2845 25.0365 39.2845 23.6834C39.2845 22.3303 38.1853 21.2334 36.8293 21.2334C35.4733 21.2334 34.374 22.3303 34.374 23.6834C34.374 25.0365 35.4733 26.1334 36.8293 26.1334Z" fill="white"/>
<path d="M25.371 26.1333C26.727 26.1333 27.8263 25.0364 27.8263 23.6833C27.8263 22.3302 26.727 21.2333 25.371 21.2333C24.015 21.2333 22.9158 22.3302 22.9158 23.6833C22.9158 25.0364 24.015 26.1333 25.371 26.1333Z" fill="white"/>
<path d="M30.2816 14.7C31.6376 14.7 32.7368 13.6031 32.7368 12.25C32.7368 10.8969 31.6376 9.79999 30.2816 9.79999C28.9256 9.79999 27.8263 10.8969 27.8263 12.25C27.8263 13.6031 28.9256 14.7 30.2816 14.7Z" fill="white"/>
<path d="M20.4601 14.6998C21.8162 14.6998 22.9154 13.6029 22.9154 12.2498C22.9154 10.8967 21.8162 9.7998 20.4601 9.7998C19.1041 9.7998 18.0049 10.8967 18.0049 12.2498C18.0049 13.6029 19.1041 14.6998 20.4601 14.6998Z" fill="white"/>
<path d="M13.9131 23.6836H25.371L30.2815 35.1169H20.4605" stroke="white"/>
<path d="M20.4609 12.25H30.282" stroke="white"/>
<path d="M75.098 13.1645H67.9941V35.9332H75.098C82.5948 35.9332 87.2107 31.6538 87.2107 24.5978C87.2107 17.5418 82.5948 13.1645 75.098 13.1645ZM70.9732 33.4832V15.5818H75.098C81.0561 15.5818 84.1661 19.0445 84.1661 24.5978C84.1661 30.1512 81.0561 33.4832 75.098 33.4832H70.9732ZM103.416 13.1318H91.1401V35.9332H103.416V33.4832H94.1191V25.6432H102.434V23.1932H94.1191V15.5818H103.416V13.1318ZM120.2 13.1318H107.924V35.9332H120.2V33.4832H110.903V25.6432H119.218V23.1932H110.903V15.5818H120.2V13.1318ZM127.687 23.9772V15.6145H132.074C135.479 15.6145 136.919 17.1825 136.919 19.8285C136.919 22.3765 135.479 23.9772 132.074 23.9772H127.687ZM139.963 19.8285C139.963 16.1045 137.443 13.1645 132.074 13.1645H124.708V35.9332H127.687V26.4272H132.074C137.737 26.4272 139.963 23.2912 139.963 19.8285Z" fill="black"/>
<path d="M150.659 17.4767H156.748V35.9333H162.346V17.4767H168.436V13.0013H150.659V17.4767ZM185.551 35.9333H191.149V13.0013H185.551V21.9847H176.843V13.0013H171.245V35.9333H176.843V26.4927H185.551V35.9333ZM217.811 24.402C217.811 17.5093 212.606 12.6747 206.059 12.6747C199.544 12.6747 194.241 17.5093 194.241 24.402C194.241 31.2947 199.544 36.162 206.059 36.162C212.573 36.162 217.811 31.2947 217.811 24.402ZM199.97 24.402C199.97 20.3187 202.327 17.738 206.059 17.738C209.725 17.738 212.115 20.3187 212.115 24.402C212.115 28.42 209.725 31.066 206.059 31.066C202.327 31.066 199.97 28.42 199.97 24.402ZM220.826 26.6887C220.826 33.026 224.984 36.162 230.32 36.162C235.623 36.162 240.076 33.026 240.076 26.6887V13.0013H234.478V26.7213C234.478 29.4327 233.07 31.0007 230.418 31.0007C227.767 31.0007 226.424 29.4327 226.424 26.7213V13.0013H220.826V26.6887ZM254.745 12.74C247.87 12.74 243.058 17.5747 243.058 24.4347C243.058 31.2947 247.903 36.0967 254.778 36.0967C260.834 36.0967 264.664 32.144 265.843 28.1913V22.9973H253.665V27.1133H260.769C259.917 29.694 257.986 31.164 255.203 31.164C251.177 31.164 248.754 28.6813 248.754 24.4347C248.754 20.4493 251.144 17.9013 254.745 17.9013C256.84 17.9013 258.411 18.718 259.263 20.2533H265.45C264.239 15.5493 260.245 12.74 254.745 12.74ZM283.249 35.9333H288.847V13.0013H283.249V21.9847H274.541V13.0013H268.943V35.9333H274.541V26.4927H283.249V35.9333ZM291.644 17.4767H297.733V35.9333H303.331V17.4767H309.42V13.0013H291.644V17.4767Z" fill="#0029FF"/>
</svg>
