<svg width="30" height="33" viewBox="0 0 30 33" fill="none" xmlns="http://www.w3.org/2000/svg">
<ellipse cx="15" cy="16.183" rx="15" ry="16.183" fill="#3683F0"/>
<path d="M15.2031 11.7139L9.8125 16.167V20.9424C9.8125 21.2061 10.0176 21.4111 10.2812 21.4111H13.5625C13.7969 21.4111 14.002 21.2061 14.002 20.9424V18.1299C14.002 17.8955 14.2363 17.6611 14.4707 17.6611H16.3457C16.6094 17.6611 16.8145 17.8955 16.8145 18.1299V20.9424C16.8145 21.2061 17.0488 21.4111 17.2832 21.4111H20.5938C20.8281 21.4111 21.0625 21.2061 21.0625 20.9424V16.1377L15.6426 11.7139C15.584 11.6553 15.4961 11.626 15.4375 11.626C15.3496 11.626 15.2617 11.6553 15.2031 11.7139ZM23.7285 14.7314L21.2969 12.71V8.66699C21.2969 8.46191 21.1211 8.31543 20.9453 8.31543H19.3047C19.0996 8.31543 18.9531 8.46191 18.9531 8.66699V10.7764L16.3164 8.6084C16.082 8.43262 15.7598 8.31543 15.4375 8.31543C15.0859 8.31543 14.7637 8.43262 14.5293 8.6084L7.11719 14.7314C7.0293 14.79 6.9707 14.9072 6.9707 14.9951C6.9707 15.083 7.0293 15.1709 7.05859 15.2295L7.82031 16.1377C7.87891 16.2256 7.9668 16.2549 8.08398 16.2549C8.17188 16.2549 8.25977 16.2256 8.31836 16.167L15.2031 10.5127C15.2617 10.4541 15.3496 10.4248 15.4375 10.4248C15.4961 10.4248 15.584 10.4541 15.6426 10.5127L22.5273 16.167C22.5859 16.2256 22.6738 16.2549 22.7617 16.2549C22.8789 16.2549 22.9668 16.2256 23.0254 16.1377L23.7871 15.2295C23.8457 15.1709 23.875 15.083 23.875 14.9951C23.875 14.9072 23.8164 14.79 23.7285 14.7314Z" fill="white"/>
</svg>
